<mxfile host="app.diagrams.net" agent="Mozilla/5.0 (Windows NT 10.0; Win64; x64) AppleWebKit/537.36 (KHTML, like Gecko) Chrome/128.0.0.0 Safari/537.36" version="24.7.12">
  <diagram name="Page-1" id="F32R4QTEQO-JVe9QggR6">
    <mxGraphModel dx="880" dy="434" grid="1" gridSize="10" guides="1" tooltips="1" connect="1" arrows="1" fold="1" page="1" pageScale="1" pageWidth="827" pageHeight="1169" math="0" shadow="0">
      <root>
        <mxCell id="0" />
        <mxCell id="1" parent="0" />
        <mxCell id="2SU0-gw6jzLVWBa-Bn59-1" value="&lt;b&gt;GCN layer 1&lt;/b&gt;&lt;div&gt;&lt;div&gt;input features length = 78&lt;/div&gt;&lt;div&gt;output features length = 78&lt;/div&gt;&lt;div&gt;activation function = RELU&lt;/div&gt;&lt;/div&gt;" style="rounded=0;whiteSpace=wrap;html=1;fillColor=#d5e8d4;strokeColor=#82b366;" parent="1" vertex="1">
          <mxGeometry x="309" y="800" width="200" height="60" as="geometry" />
        </mxCell>
        <mxCell id="2SU0-gw6jzLVWBa-Bn59-3" value="&lt;b&gt;GCN layer 2&lt;/b&gt;&lt;div&gt;&lt;div&gt;input features length = 78&lt;/div&gt;&lt;div&gt;output features length = 78*2&amp;nbsp;&lt;/div&gt;&lt;div&gt;activation function = RELU&lt;/div&gt;&lt;/div&gt;" style="rounded=0;whiteSpace=wrap;html=1;fillColor=#d5e8d4;strokeColor=#82b366;" parent="1" vertex="1">
          <mxGeometry x="309" y="620" width="200" height="60" as="geometry" />
        </mxCell>
        <mxCell id="2SU0-gw6jzLVWBa-Bn59-4" value="&lt;b&gt;GCN layer 3&lt;/b&gt;&lt;div&gt;&lt;div&gt;input features length = 78*2&lt;/div&gt;&lt;div&gt;output features length = 78*4&amp;nbsp;&lt;/div&gt;&lt;div&gt;activation function = RELU&lt;/div&gt;&lt;/div&gt;" style="rounded=0;whiteSpace=wrap;html=1;fillColor=#d5e8d4;strokeColor=#82b366;" parent="1" vertex="1">
          <mxGeometry x="309" y="450" width="200" height="60" as="geometry" />
        </mxCell>
        <mxCell id="2SU0-gw6jzLVWBa-Bn59-5" value="&lt;b&gt;A&lt;/b&gt;" style="whiteSpace=wrap;html=1;aspect=fixed;dashed=1;" parent="1" vertex="1">
          <mxGeometry x="349" y="922" width="40" height="40" as="geometry" />
        </mxCell>
        <mxCell id="2SU0-gw6jzLVWBa-Bn59-6" value="&lt;b&gt;X&lt;/b&gt;" style="whiteSpace=wrap;html=1;aspect=fixed;dashed=1;" parent="1" vertex="1">
          <mxGeometry x="429" y="922" width="38" height="38" as="geometry" />
        </mxCell>
        <mxCell id="2SU0-gw6jzLVWBa-Bn59-7" value="" style="endArrow=classic;startArrow=classic;html=1;rounded=0;" parent="1" edge="1">
          <mxGeometry width="50" height="50" relative="1" as="geometry">
            <mxPoint x="349" y="912" as="sourcePoint" />
            <mxPoint x="389" y="912" as="targetPoint" />
          </mxGeometry>
        </mxCell>
        <mxCell id="2SU0-gw6jzLVWBa-Bn59-8" value="" style="endArrow=classic;startArrow=classic;html=1;rounded=0;" parent="1" edge="1">
          <mxGeometry width="50" height="50" relative="1" as="geometry">
            <mxPoint x="429" y="911" as="sourcePoint" />
            <mxPoint x="469" y="911" as="targetPoint" />
          </mxGeometry>
        </mxCell>
        <mxCell id="2SU0-gw6jzLVWBa-Bn59-11" value="" style="endArrow=classic;startArrow=classic;html=1;rounded=0;" parent="1" edge="1">
          <mxGeometry width="50" height="50" relative="1" as="geometry">
            <mxPoint x="339" y="962" as="sourcePoint" />
            <mxPoint x="339" y="921" as="targetPoint" />
          </mxGeometry>
        </mxCell>
        <mxCell id="2SU0-gw6jzLVWBa-Bn59-13" value="N" style="edgeLabel;html=1;align=center;verticalAlign=middle;resizable=0;points=[];" parent="2SU0-gw6jzLVWBa-Bn59-11" vertex="1" connectable="0">
          <mxGeometry x="-0.0732" y="4" relative="1" as="geometry">
            <mxPoint x="-2" as="offset" />
          </mxGeometry>
        </mxCell>
        <mxCell id="2SU0-gw6jzLVWBa-Bn59-12" value="" style="endArrow=classic;startArrow=classic;html=1;rounded=0;" parent="1" edge="1">
          <mxGeometry width="50" height="50" relative="1" as="geometry">
            <mxPoint x="421" y="963" as="sourcePoint" />
            <mxPoint x="421" y="922" as="targetPoint" />
          </mxGeometry>
        </mxCell>
        <mxCell id="2SU0-gw6jzLVWBa-Bn59-16" value="N" style="text;html=1;align=center;verticalAlign=middle;resizable=0;points=[];autosize=1;strokeColor=none;fillColor=none;" parent="1" vertex="1">
          <mxGeometry x="354" y="890" width="30" height="30" as="geometry" />
        </mxCell>
        <mxCell id="2SU0-gw6jzLVWBa-Bn59-19" value="78" style="text;html=1;align=center;verticalAlign=middle;resizable=0;points=[];autosize=1;strokeColor=none;fillColor=none;" parent="1" vertex="1">
          <mxGeometry x="429" y="890" width="40" height="30" as="geometry" />
        </mxCell>
        <mxCell id="2SU0-gw6jzLVWBa-Bn59-20" value="N" style="edgeLabel;html=1;align=center;verticalAlign=middle;resizable=0;points=[];" parent="1" vertex="1" connectable="0">
          <mxGeometry x="409" y="892" as="geometry">
            <mxPoint x="5" y="48" as="offset" />
          </mxGeometry>
        </mxCell>
        <mxCell id="2SU0-gw6jzLVWBa-Bn59-21" value="" style="endArrow=classic;html=1;rounded=0;entryX=0.295;entryY=1.05;entryDx=0;entryDy=0;entryPerimeter=0;dashed=1;" parent="1" edge="1">
          <mxGeometry width="50" height="50" relative="1" as="geometry">
            <mxPoint x="369" y="890" as="sourcePoint" />
            <mxPoint x="369" y="862" as="targetPoint" />
          </mxGeometry>
        </mxCell>
        <mxCell id="2SU0-gw6jzLVWBa-Bn59-22" value="" style="endArrow=classic;html=1;rounded=0;entryX=0.295;entryY=1.05;entryDx=0;entryDy=0;entryPerimeter=0;dashed=1;" parent="1" edge="1">
          <mxGeometry width="50" height="50" relative="1" as="geometry">
            <mxPoint x="449" y="890" as="sourcePoint" />
            <mxPoint x="448.5" y="860" as="targetPoint" />
          </mxGeometry>
        </mxCell>
        <mxCell id="2SU0-gw6jzLVWBa-Bn59-23" value="&lt;b&gt;X&lt;/b&gt;" style="whiteSpace=wrap;html=1;aspect=fixed;dashed=1;" parent="1" vertex="1">
          <mxGeometry x="429" y="742" width="40" height="40" as="geometry" />
        </mxCell>
        <mxCell id="2SU0-gw6jzLVWBa-Bn59-24" value="" style="endArrow=classic;startArrow=classic;html=1;rounded=0;" parent="1" edge="1">
          <mxGeometry width="50" height="50" relative="1" as="geometry">
            <mxPoint x="429" y="731" as="sourcePoint" />
            <mxPoint x="469" y="731" as="targetPoint" />
          </mxGeometry>
        </mxCell>
        <mxCell id="2SU0-gw6jzLVWBa-Bn59-25" value="" style="endArrow=classic;startArrow=classic;html=1;rounded=0;" parent="1" edge="1">
          <mxGeometry width="50" height="50" relative="1" as="geometry">
            <mxPoint x="421" y="783" as="sourcePoint" />
            <mxPoint x="421" y="742" as="targetPoint" />
          </mxGeometry>
        </mxCell>
        <mxCell id="2SU0-gw6jzLVWBa-Bn59-26" value="78" style="text;html=1;align=center;verticalAlign=middle;resizable=0;points=[];autosize=1;strokeColor=none;fillColor=none;" parent="1" vertex="1">
          <mxGeometry x="429" y="710" width="40" height="30" as="geometry" />
        </mxCell>
        <mxCell id="2SU0-gw6jzLVWBa-Bn59-27" value="N" style="edgeLabel;html=1;align=center;verticalAlign=middle;resizable=0;points=[];" parent="1" vertex="1" connectable="0">
          <mxGeometry x="409" y="712" as="geometry">
            <mxPoint x="5" y="48" as="offset" />
          </mxGeometry>
        </mxCell>
        <mxCell id="2SU0-gw6jzLVWBa-Bn59-29" value="" style="endArrow=classic;html=1;rounded=0;entryX=0.295;entryY=1.05;entryDx=0;entryDy=0;entryPerimeter=0;dashed=1;exitX=0.695;exitY=-0.033;exitDx=0;exitDy=0;exitPerimeter=0;" parent="1" edge="1" source="2SU0-gw6jzLVWBa-Bn59-1">
          <mxGeometry width="50" height="50" relative="1" as="geometry">
            <mxPoint x="448.5" y="822" as="sourcePoint" />
            <mxPoint x="447.5" y="782" as="targetPoint" />
          </mxGeometry>
        </mxCell>
        <mxCell id="2SU0-gw6jzLVWBa-Bn59-30" value="" style="endArrow=classic;html=1;rounded=0;entryX=0.295;entryY=1.05;entryDx=0;entryDy=0;entryPerimeter=0;dashed=1;" parent="1" edge="1">
          <mxGeometry width="50" height="50" relative="1" as="geometry">
            <mxPoint x="448" y="710" as="sourcePoint" />
            <mxPoint x="447.5" y="680" as="targetPoint" />
          </mxGeometry>
        </mxCell>
        <mxCell id="2SU0-gw6jzLVWBa-Bn59-39" value="" style="endArrow=classic;startArrow=classic;html=1;rounded=0;" parent="1" edge="1">
          <mxGeometry width="50" height="50" relative="1" as="geometry">
            <mxPoint x="429" y="551" as="sourcePoint" />
            <mxPoint x="519" y="550" as="targetPoint" />
          </mxGeometry>
        </mxCell>
        <mxCell id="2SU0-gw6jzLVWBa-Bn59-40" value="" style="endArrow=classic;startArrow=classic;html=1;rounded=0;" parent="1" edge="1">
          <mxGeometry width="50" height="50" relative="1" as="geometry">
            <mxPoint x="421" y="603" as="sourcePoint" />
            <mxPoint x="421" y="562" as="targetPoint" />
          </mxGeometry>
        </mxCell>
        <mxCell id="2SU0-gw6jzLVWBa-Bn59-41" value="78 * 2 = 156" style="text;html=1;align=center;verticalAlign=middle;resizable=0;points=[];autosize=1;strokeColor=none;fillColor=none;" parent="1" vertex="1">
          <mxGeometry x="429" y="530" width="90" height="30" as="geometry" />
        </mxCell>
        <mxCell id="2SU0-gw6jzLVWBa-Bn59-42" value="N" style="edgeLabel;html=1;align=center;verticalAlign=middle;resizable=0;points=[];" parent="1" vertex="1" connectable="0">
          <mxGeometry x="409" y="542" as="geometry">
            <mxPoint x="5" y="48" as="offset" />
          </mxGeometry>
        </mxCell>
        <mxCell id="2SU0-gw6jzLVWBa-Bn59-43" value="" style="endArrow=classic;html=1;rounded=0;entryX=0.295;entryY=1.05;entryDx=0;entryDy=0;entryPerimeter=0;dashed=1;" parent="1" edge="1">
          <mxGeometry width="50" height="50" relative="1" as="geometry">
            <mxPoint x="448" y="620" as="sourcePoint" />
            <mxPoint x="447.5" y="602" as="targetPoint" />
          </mxGeometry>
        </mxCell>
        <mxCell id="2SU0-gw6jzLVWBa-Bn59-44" value="" style="endArrow=classic;html=1;rounded=0;entryX=0.295;entryY=1.05;entryDx=0;entryDy=0;entryPerimeter=0;dashed=1;" parent="1" edge="1">
          <mxGeometry width="50" height="50" relative="1" as="geometry">
            <mxPoint x="448" y="540" as="sourcePoint" />
            <mxPoint x="447.5" y="510" as="targetPoint" />
          </mxGeometry>
        </mxCell>
        <mxCell id="2SU0-gw6jzLVWBa-Bn59-45" value="&lt;b&gt;X&lt;/b&gt;" style="rounded=0;whiteSpace=wrap;html=1;dashed=1;" parent="1" vertex="1">
          <mxGeometry x="429" y="560" width="81" height="40" as="geometry" />
        </mxCell>
        <mxCell id="2SU0-gw6jzLVWBa-Bn59-46" value="" style="endArrow=classic;startArrow=classic;html=1;rounded=0;" parent="1" edge="1">
          <mxGeometry width="50" height="50" relative="1" as="geometry">
            <mxPoint x="429" y="379" as="sourcePoint" />
            <mxPoint x="600" y="378" as="targetPoint" />
          </mxGeometry>
        </mxCell>
        <mxCell id="2SU0-gw6jzLVWBa-Bn59-47" value="" style="endArrow=classic;startArrow=classic;html=1;rounded=0;" parent="1" edge="1">
          <mxGeometry width="50" height="50" relative="1" as="geometry">
            <mxPoint x="421" y="431" as="sourcePoint" />
            <mxPoint x="421" y="390" as="targetPoint" />
          </mxGeometry>
        </mxCell>
        <mxCell id="2SU0-gw6jzLVWBa-Bn59-48" value="N" style="edgeLabel;html=1;align=center;verticalAlign=middle;resizable=0;points=[];" parent="1" vertex="1" connectable="0">
          <mxGeometry x="409" y="370" as="geometry">
            <mxPoint x="5" y="48" as="offset" />
          </mxGeometry>
        </mxCell>
        <mxCell id="2SU0-gw6jzLVWBa-Bn59-49" value="" style="endArrow=classic;html=1;rounded=0;entryX=0.295;entryY=1.05;entryDx=0;entryDy=0;entryPerimeter=0;dashed=1;" parent="1" edge="1">
          <mxGeometry width="50" height="50" relative="1" as="geometry">
            <mxPoint x="448" y="450" as="sourcePoint" />
            <mxPoint x="447.5" y="430" as="targetPoint" />
          </mxGeometry>
        </mxCell>
        <mxCell id="2SU0-gw6jzLVWBa-Bn59-50" value="&lt;b&gt;X&lt;/b&gt;" style="rounded=0;whiteSpace=wrap;html=1;dashed=1;" parent="1" vertex="1">
          <mxGeometry x="429" y="388" width="171" height="40" as="geometry" />
        </mxCell>
        <mxCell id="2SU0-gw6jzLVWBa-Bn59-51" value="78* 4 = 312" style="text;html=1;align=center;verticalAlign=middle;resizable=0;points=[];autosize=1;strokeColor=none;fillColor=none;" parent="1" vertex="1">
          <mxGeometry x="475" y="358" width="90" height="30" as="geometry" />
        </mxCell>
        <mxCell id="2SU0-gw6jzLVWBa-Bn59-54" value="global max pooling" style="rounded=0;whiteSpace=wrap;html=1;fillColor=#d5e8d4;strokeColor=#82b366;" parent="1" vertex="1">
          <mxGeometry x="420" y="316" width="200" height="20" as="geometry" />
        </mxCell>
        <mxCell id="2SU0-gw6jzLVWBa-Bn59-56" value="" style="endArrow=classic;html=1;rounded=0;entryX=0.295;entryY=1.05;entryDx=0;entryDy=0;entryPerimeter=0;dashed=1;" parent="1" edge="1">
          <mxGeometry width="50" height="50" relative="1" as="geometry">
            <mxPoint x="519" y="260" as="sourcePoint" />
            <mxPoint x="519" y="240" as="targetPoint" />
          </mxGeometry>
        </mxCell>
        <mxCell id="2SU0-gw6jzLVWBa-Bn59-57" value="&lt;b&gt;Linear Layer&lt;/b&gt;&lt;div&gt;input length = 312&lt;/div&gt;&lt;div&gt;output length = 1024&lt;/div&gt;&lt;div&gt;activation function = RELU&lt;br&gt;&lt;/div&gt;" style="rounded=0;whiteSpace=wrap;html=1;fillColor=#d5e8d4;strokeColor=#82b366;" parent="1" vertex="1">
          <mxGeometry x="400" y="180" width="260" height="60" as="geometry" />
        </mxCell>
        <mxCell id="2SU0-gw6jzLVWBa-Bn59-58" value="" style="endArrow=classic;html=1;rounded=0;entryX=0.295;entryY=1.05;entryDx=0;entryDy=0;entryPerimeter=0;dashed=1;" parent="1" edge="1">
          <mxGeometry width="50" height="50" relative="1" as="geometry">
            <mxPoint x="520" y="180" as="sourcePoint" />
            <mxPoint x="519" y="160" as="targetPoint" />
          </mxGeometry>
        </mxCell>
        <mxCell id="2SU0-gw6jzLVWBa-Bn59-59" value="&lt;b&gt;Linear Layer&lt;/b&gt;&lt;div&gt;input length = 1024&lt;/div&gt;&lt;div&gt;output length = 128&lt;/div&gt;" style="rounded=0;whiteSpace=wrap;html=1;fillColor=#d5e8d4;strokeColor=#82b366;" parent="1" vertex="1">
          <mxGeometry x="400" y="110" width="260" height="50" as="geometry" />
        </mxCell>
        <mxCell id="2SU0-gw6jzLVWBa-Bn59-60" value="" style="endArrow=classic;html=1;rounded=0;dashed=1;" parent="1" edge="1">
          <mxGeometry width="50" height="50" relative="1" as="geometry">
            <mxPoint x="520.5" y="360" as="sourcePoint" />
            <mxPoint x="520" y="340" as="targetPoint" />
          </mxGeometry>
        </mxCell>
        <mxCell id="2SU0-gw6jzLVWBa-Bn59-61" value="&lt;b&gt;output&lt;/b&gt;" style="rounded=0;whiteSpace=wrap;html=1;dashed=1;" parent="1" vertex="1">
          <mxGeometry x="434.5" y="65" width="171" height="20" as="geometry" />
        </mxCell>
        <mxCell id="2SU0-gw6jzLVWBa-Bn59-62" value="" style="endArrow=classic;startArrow=classic;html=1;rounded=0;" parent="1" edge="1">
          <mxGeometry width="50" height="50" relative="1" as="geometry">
            <mxPoint x="434.5" y="60" as="sourcePoint" />
            <mxPoint x="605.5" y="59" as="targetPoint" />
          </mxGeometry>
        </mxCell>
        <mxCell id="2SU0-gw6jzLVWBa-Bn59-64" value="128" style="text;html=1;align=center;verticalAlign=middle;resizable=0;points=[];autosize=1;strokeColor=none;fillColor=none;" parent="1" vertex="1">
          <mxGeometry x="505.5" y="39" width="40" height="30" as="geometry" />
        </mxCell>
        <mxCell id="2SU0-gw6jzLVWBa-Bn59-66" value="" style="endArrow=classic;html=1;rounded=0;entryX=0.5;entryY=1;entryDx=0;entryDy=0;dashed=1;" parent="1" edge="1" target="2SU0-gw6jzLVWBa-Bn59-61">
          <mxGeometry width="50" height="50" relative="1" as="geometry">
            <mxPoint x="520" y="106" as="sourcePoint" />
            <mxPoint x="519" y="105" as="targetPoint" />
          </mxGeometry>
        </mxCell>
        <mxCell id="UnNEL-0h5fKXftePd4Pc-1" value="" style="endArrow=classic;html=1;rounded=0;entryX=0.25;entryY=1;entryDx=0;entryDy=0;dashed=1;" edge="1" parent="1" target="2SU0-gw6jzLVWBa-Bn59-3">
          <mxGeometry width="50" height="50" relative="1" as="geometry">
            <mxPoint x="360" y="880" as="sourcePoint" />
            <mxPoint x="360" y="740" as="targetPoint" />
            <Array as="points">
              <mxPoint x="280" y="880" />
              <mxPoint x="280" y="780" />
              <mxPoint x="320" y="780" />
              <mxPoint x="359" y="780" />
            </Array>
          </mxGeometry>
        </mxCell>
        <mxCell id="UnNEL-0h5fKXftePd4Pc-2" value="" style="endArrow=classic;html=1;rounded=0;entryX=0.25;entryY=1;entryDx=0;entryDy=0;dashed=1;" edge="1" parent="1" target="2SU0-gw6jzLVWBa-Bn59-4">
          <mxGeometry width="50" height="50" relative="1" as="geometry">
            <mxPoint x="360" y="720" as="sourcePoint" />
            <mxPoint x="360" y="540" as="targetPoint" />
            <Array as="points">
              <mxPoint x="280" y="720" />
              <mxPoint x="280" y="600" />
              <mxPoint x="360" y="600" />
            </Array>
          </mxGeometry>
        </mxCell>
        <mxCell id="UnNEL-0h5fKXftePd4Pc-3" value="" style="endArrow=classic;startArrow=classic;html=1;rounded=0;" edge="1" parent="1">
          <mxGeometry width="50" height="50" relative="1" as="geometry">
            <mxPoint x="434.5" y="311" as="sourcePoint" />
            <mxPoint x="605.5" y="310" as="targetPoint" />
          </mxGeometry>
        </mxCell>
        <mxCell id="UnNEL-0h5fKXftePd4Pc-4" value="78* 4 = 312" style="text;html=1;align=center;verticalAlign=middle;resizable=0;points=[];autosize=1;strokeColor=none;fillColor=none;" vertex="1" parent="1">
          <mxGeometry x="480.5" y="290" width="90" height="30" as="geometry" />
        </mxCell>
        <mxCell id="UnNEL-0h5fKXftePd4Pc-5" value="" style="endArrow=classic;html=1;rounded=0;dashed=1;" edge="1" parent="1">
          <mxGeometry width="50" height="50" relative="1" as="geometry">
            <mxPoint x="520" y="300" as="sourcePoint" />
            <mxPoint x="520.5" y="280" as="targetPoint" />
          </mxGeometry>
        </mxCell>
        <mxCell id="UnNEL-0h5fKXftePd4Pc-6" value="1" style="edgeLabel;html=1;align=center;verticalAlign=middle;resizable=0;points=[];" vertex="1" connectable="0" parent="1">
          <mxGeometry x="469" y="278" as="geometry">
            <mxPoint x="-4" y="-8" as="offset" />
          </mxGeometry>
        </mxCell>
        <mxCell id="UnNEL-0h5fKXftePd4Pc-7" value="" style="rounded=0;whiteSpace=wrap;html=1;dashed=1;" vertex="1" parent="1">
          <mxGeometry x="474" y="270" width="88" height="10" as="geometry" />
        </mxCell>
        <mxCell id="UnNEL-0h5fKXftePd4Pc-8" value="" style="endArrow=classic;startArrow=classic;html=1;rounded=0;" edge="1" parent="1">
          <mxGeometry width="50" height="50" relative="1" as="geometry">
            <mxPoint x="474" y="261" as="sourcePoint" />
            <mxPoint x="562" y="260" as="targetPoint" />
          </mxGeometry>
        </mxCell>
        <mxCell id="UnNEL-0h5fKXftePd4Pc-9" value="312" style="edgeLabel;html=1;align=center;verticalAlign=middle;resizable=0;points=[];" vertex="1" connectable="0" parent="UnNEL-0h5fKXftePd4Pc-8">
          <mxGeometry x="0.2057" y="4" relative="1" as="geometry">
            <mxPoint as="offset" />
          </mxGeometry>
        </mxCell>
      </root>
    </mxGraphModel>
  </diagram>
</mxfile>
